<svg width="30" height="27" viewBox="0 0 30 27" fill="none" xmlns="http://www.w3.org/2000/svg">
<g clip-path="url(#clip0_33_611)">
<path d="M16.754 26.062C16.668 26.062 16.586 26.062 16.504 26.05C14.829 25.902 12.51 23.606 9.61399 19.218C8.13798 17.0219 7.30658 14.4564 7.214 11.812C7.19381 11.2316 7.22258 10.6506 7.3 10.075C6.734 9.497 5.04 7.56901 5.52 5.53101C5.911 3.86401 8.143 3.09901 9.951 2.75101C10.4553 2.65647 10.9767 2.75817 11.4085 3.03532C11.8403 3.31248 12.1499 3.74413 12.274 4.242C12.5045 5.69388 12.3648 7.18045 11.868 8.56401C11.8439 9.55455 12.0053 10.5408 12.344 11.472C14.4539 12.447 16.3147 13.8886 17.786 15.688C18.458 13.4 20.546 8.15801 25.535 9.03601C26.4819 9.1418 27.3783 9.51801 28.1171 10.1197C28.8559 10.7214 29.4057 11.5231 29.701 12.429C30.0334 13.493 30.1019 14.6218 29.9007 15.7181C29.6995 16.8145 29.2345 17.8454 28.546 18.722C26.821 20.545 20.146 26.061 16.756 26.061L16.754 26.062ZM10.32 3.61C10.2506 3.61066 10.1813 3.61736 10.113 3.63001C9.094 3.83001 6.68899 4.42201 6.38499 5.73801C5.94399 7.62001 8.05199 9.572 8.07099 9.591C8.12657 9.64149 8.1686 9.7051 8.19323 9.77603C8.21786 9.84696 8.22432 9.92294 8.212 9.99701C8.11907 10.5922 8.08256 11.1949 8.10299 11.797C8.1913 14.2731 8.97182 16.675 10.356 18.73C12.979 22.704 15.256 25.047 16.583 25.164C19.39 25.402 26.089 20.022 27.892 18.117C28.4621 17.3542 28.8454 16.4682 29.0109 15.5304C29.1764 14.5925 29.1196 13.6289 28.845 12.717C28.5927 11.9688 28.1315 11.3083 27.5159 10.8138C26.9003 10.3192 26.156 10.0112 25.371 9.92601C19.921 8.96601 18.414 16.809 18.398 16.887C18.3818 16.9782 18.3376 17.0621 18.2715 17.127C18.2054 17.192 18.1208 17.2347 18.0293 17.2493C17.9378 17.264 17.844 17.2497 17.761 17.2086C17.678 17.1675 17.6098 17.1016 17.566 17.02C15.942 14.057 11.847 12.238 11.808 12.22C11.7032 12.1724 11.6199 12.0876 11.574 11.982C11.137 10.8747 10.9297 9.68996 10.965 8.5C10.9656 8.45759 10.9724 8.41549 10.985 8.375C11.4533 7.12353 11.5944 5.77326 11.395 4.45201C11.3366 4.21179 11.1989 3.99824 11.0042 3.84584C10.8096 3.69344 10.5692 3.61106 10.322 3.612L10.32 3.61Z" fill="#0D0D0D"/>
<path d="M4.47901 9.84501C4.3862 9.84513 4.29566 9.8163 4.22002 9.76252C4.14437 9.70875 4.08739 9.63271 4.05701 9.54501L3.31101 7.40902C3.29172 7.35394 3.28347 7.29559 3.28676 7.23732C3.29005 7.17904 3.3048 7.12198 3.33016 7.06941C3.35551 7.01684 3.39098 6.96978 3.43454 6.93094C3.4781 6.89209 3.52888 6.86221 3.584 6.84301L5.739 6.08601C5.79504 6.06481 5.85474 6.05496 5.91461 6.05703C5.97449 6.05911 6.03335 6.07308 6.08779 6.09811C6.14222 6.12314 6.19114 6.15874 6.23169 6.20285C6.27224 6.24695 6.30363 6.29868 6.32401 6.35502C6.34376 6.41164 6.35191 6.47164 6.34799 6.53148C6.34408 6.59131 6.32817 6.64973 6.30121 6.70329C6.27425 6.75684 6.23677 6.80443 6.19104 6.84321C6.14531 6.88199 6.09225 6.91117 6.03501 6.92901L4.29801 7.53802L4.75101 8.83801L6.543 8.20602C6.59835 8.18632 6.65704 8.17771 6.71572 8.18069C6.77439 8.18367 6.83191 8.19819 6.88498 8.2234C6.93805 8.24861 6.98563 8.28403 7.02501 8.32763C7.06439 8.37123 7.09481 8.42217 7.1145 8.47752C7.1342 8.53287 7.1428 8.59156 7.13982 8.65023C7.13683 8.70891 7.12232 8.76643 7.09711 8.8195C7.0719 8.87257 7.03649 8.92015 6.99289 8.95953C6.94929 8.99891 6.89836 9.02932 6.843 9.04902L4.629 9.83001C4.58067 9.84273 4.53097 9.84945 4.481 9.85002L4.47901 9.84501Z" fill="#0D0D0D"/>
<path d="M11.811 7.29203C11.7056 7.29221 11.6035 7.25505 11.5229 7.18714C11.4423 7.11924 11.3883 7.02498 11.3706 6.92107C11.3529 6.81717 11.3725 6.71033 11.426 6.61953C11.4795 6.52872 11.5635 6.45982 11.663 6.42502L14.298 5.50002L13.845 4.20002L11.99 4.84803C11.8782 4.88688 11.7556 4.87973 11.6491 4.82816C11.5425 4.77659 11.4609 4.68481 11.422 4.57302C11.3832 4.46123 11.3903 4.3386 11.4419 4.23208C11.4935 4.12556 11.5852 4.04388 11.697 4.00503L13.973 3.20502C14.0848 3.16594 14.2075 3.17272 14.3143 3.22388C14.4212 3.27504 14.5034 3.36641 14.543 3.47802L15.289 5.61703C15.3083 5.67211 15.3165 5.73046 15.3132 5.78873C15.31 5.84701 15.2952 5.90406 15.2699 5.95663C15.2445 6.0092 15.209 6.05625 15.1655 6.0951C15.1219 6.13395 15.0711 6.16382 15.016 6.18302L11.959 7.25303C11.9128 7.27506 11.8622 7.28601 11.811 7.28503V7.29203Z" fill="#0D0D0D"/>
<path d="M16.114 8.49001C15.8871 8.49032 15.6658 8.41975 15.4809 8.28816C15.2961 8.15656 15.1569 7.97051 15.083 7.75601L13.061 1.93902C12.9669 1.66524 12.9837 1.36549 13.108 1.10401C13.1701 0.974767 13.2574 0.859211 13.3647 0.764089C13.472 0.668967 13.5972 0.596193 13.733 0.550016L15.133 0.0620092C15.2684 0.0147671 15.4117 -0.0053223 15.5549 0.002889C15.698 0.0111003 15.8382 0.0474559 15.9673 0.109868C16.0964 0.172281 16.2119 0.259532 16.3073 0.366628C16.4026 0.473724 16.4759 0.598565 16.523 0.734014L18.545 6.55102C18.6391 6.82479 18.6222 7.12453 18.498 7.38601C18.4358 7.51526 18.3486 7.63081 18.2413 7.72593C18.1339 7.82106 18.0087 7.89384 17.873 7.94002L16.473 8.42801C16.3579 8.46968 16.2364 8.49067 16.114 8.49001ZM15.489 0.897016C15.4665 0.897272 15.4442 0.901322 15.423 0.909009L14.023 1.39702C13.9984 1.40529 13.9758 1.4184 13.9563 1.43557C13.9369 1.45275 13.9212 1.47364 13.91 1.49701C13.8982 1.52041 13.8914 1.546 13.89 1.57217C13.8886 1.59834 13.8927 1.62451 13.902 1.64901L15.924 7.46601C15.9418 7.51556 15.9786 7.55607 16.0261 7.57873C16.0737 7.60138 16.1282 7.60436 16.178 7.58701L17.578 7.09901C17.603 7.09086 17.6261 7.0777 17.6459 7.06033C17.6657 7.04296 17.6817 7.02175 17.693 6.99799C17.7043 6.97423 17.7107 6.94842 17.7117 6.92212C17.7127 6.89582 17.7084 6.86958 17.699 6.84501L15.677 1.02801C15.6629 0.989546 15.6372 0.95635 15.6036 0.93292C15.57 0.909489 15.53 0.896959 15.489 0.897016Z" fill="#0D0D0D"/>
<path d="M3.113 13.03C2.8861 13.0303 2.66477 12.9598 2.47993 12.8282C2.29509 12.6966 2.15597 12.5105 2.08201 12.296L0.060005 6.47902C-0.0345766 6.20556 -0.0169735 5.90577 0.10897 5.64526C0.234914 5.38475 0.458938 5.18474 0.732002 5.08902L2.13201 4.60103C2.40494 4.50685 2.70405 4.52469 2.96384 4.65065C3.22364 4.77661 3.42291 5.00042 3.518 5.27302L5.54 11.09C5.63458 11.3635 5.61698 11.6633 5.49104 11.9238C5.36509 12.1843 5.14107 12.3843 4.868 12.48L3.46801 12.968C3.35243 13.0077 3.23121 13.0287 3.109 13.03H3.113ZM2.488 5.43002C2.46548 5.43028 2.44317 5.43433 2.422 5.44202L1.02201 5.93002C0.996986 5.93818 0.97387 5.95134 0.954094 5.9687C0.934317 5.98607 0.918294 6.00729 0.906975 6.03105C0.895655 6.05481 0.889277 6.08062 0.888252 6.10692C0.887227 6.13322 0.891573 6.15945 0.901008 6.18402L2.923 12.001C2.93115 12.026 2.94433 12.0491 2.96169 12.0689C2.97906 12.0887 3.00026 12.1047 3.02402 12.1161C3.04779 12.1274 3.07361 12.1337 3.09991 12.1348C3.12621 12.1358 3.15244 12.1315 3.17701 12.122L4.577 11.634C4.60203 11.6259 4.62513 11.6127 4.64491 11.5953C4.66468 11.578 4.68072 11.5568 4.69204 11.533C4.70336 11.5092 4.70972 11.4834 4.71075 11.4571C4.71177 11.4308 4.70744 11.4046 4.69801 11.38L2.676 5.56302C2.66176 5.5249 2.63623 5.49204 2.60282 5.46881C2.56941 5.44558 2.5297 5.4331 2.48901 5.43303L2.488 5.43002Z" fill="#0D0D0D"/>
</g>
<defs>
<clipPath id="clip0_33_611">
<rect width="30.008" height="26.062" fill="white"/>
</clipPath>
</defs>
</svg>
