<svg width="20" height="26" viewBox="0 0 20 26" fill="none" xmlns="http://www.w3.org/2000/svg">
<path d="M19.9178 18.3967L18.0406 14.7674C17.7903 14.2668 17.6651 13.7662 17.6651 13.2656V9.01061C17.6651 5.88193 14.7868 3.25383 11.1575 3.00354V1.12633C11.1575 0.50059 10.6569 0 10.0312 0C9.40542 0 8.90483 0.50059 8.90483 1.12633V2.87839C5.27555 3.12869 2.39716 5.75678 2.39716 9.01061V13.3908C2.39716 13.8914 2.27201 14.392 2.02172 14.8925L0.144508 18.2715C-0.105787 18.647 0.0193604 19.0224 0.144508 19.3978C0.394803 19.7733 0.770245 20.0236 1.14569 20.0236H18.7915C19.1669 20.0236 19.5424 19.7733 19.7927 19.523C20.0429 19.1476 20.0429 18.647 19.9178 18.3967ZM3.14805 17.7709L4.14923 16.0189C4.52467 15.268 4.77496 14.392 4.77496 13.5159V9.01061C4.77496 6.88311 6.90247 5.25619 9.53056 5.25619H10.6569C13.285 5.25619 15.4125 7.00825 15.4125 9.01061V13.3908C15.4125 14.2668 15.6628 15.1428 16.0382 15.8937L17.0394 17.8961H3.14805V17.7709ZM13.6604 21.0248H12.5341C12.2838 21.0248 12.0335 21.1499 12.0335 21.4002C11.7832 22.2762 11.0323 23.0271 10.0312 23.0271C9.02997 23.0271 8.15394 22.4014 8.02879 21.4002C8.02879 21.1499 7.7785 21.0248 7.5282 21.0248H6.40188C6.02644 21.0248 5.77614 21.2751 5.90129 21.6505C6.15158 23.5277 7.90365 25.0295 10.0312 25.0295C12.1587 25.0295 13.9107 23.5277 14.161 21.6505C14.161 21.2751 13.9107 21.0248 13.6604 21.0248Z" fill="#3B65F5"/>
</svg>
