<svg width="24" height="24" viewBox="0 0 24 24" fill="none" xmlns="http://www.w3.org/2000/svg">
<path opacity="0.51" d="M22.2713 8.14821C22.7533 8.154 23.1409 8.54554 23.1409 9.02651V16.7937C23.1409 21.2381 20.3623 24 15.908 24H12.3658C11.878 24 11.4808 23.6085 11.475 23.1217C11.4807 22.6332 11.8762 22.2385 12.3658 22.2328H15.908C19.4184 22.2328 21.3592 20.3069 21.391 16.7937V9.02651C21.391 8.54144 21.7851 8.14821 22.2713 8.14821ZM15.0278 0.931303C15.5156 0.937099 15.908 1.33337 15.908 1.82019C15.908 2.05497 15.8139 2.27999 15.6465 2.44501C15.4791 2.61004 15.2525 2.70132 15.0172 2.69849H7.22225C3.71188 2.69849 1.77109 4.63499 1.77109 8.14821V16.7937C1.77109 20.3069 3.71188 22.2328 7.22225 22.2328C7.71186 22.2385 8.10737 22.6332 8.1131 23.1217C8.10729 23.6085 7.71014 24 7.22225 24C2.768 24 0 21.2381 0 16.7937V8.14821C0 3.6932 2.768 0.931303 7.22225 0.931303H15.0278ZM16.3687 8.96899C16.6784 8.75801 17.0957 8.76407 17.4012 8.9986C17.745 9.26246 17.8449 9.73684 17.6367 10.1165L14.243 14.4868C14.0944 14.6698 13.8825 14.7906 13.6491 14.8254C13.4168 14.849 13.1845 14.7806 13.0022 14.635L9.74632 12.0847L6.81925 15.8836C6.67967 16.0731 6.46978 16.1988 6.23656 16.2326C6.00333 16.2664 5.76626 16.2055 5.57842 16.0635C5.19506 15.7636 5.1242 15.2121 5.41934 14.8254L8.88729 10.3175C9.03196 10.1306 9.24521 10.0088 9.48 9.97906C9.71478 9.94928 9.95179 10.0139 10.1387 10.1588L13.3946 12.709L16.258 9.05826L16.3687 8.96899ZM19.6814 0.239956C20.8461 -0.244919 22.189 0.0186355 23.0829 0.907565C23.9768 1.7965 24.2456 3.13546 23.7636 4.2993C23.2816 5.46314 22.144 6.22229 20.8819 6.22229C19.1641 6.22229 17.7698 4.83585 17.764 3.12177L17.771 2.90092C17.8501 1.73091 18.5851 0.696309 19.6814 0.239956ZM20.8819 1.77786C20.1381 1.77786 19.5351 2.37955 19.5351 3.12177C19.5351 3.86399 20.1381 4.46568 20.8819 4.46568C21.6258 4.46568 22.2288 3.86399 22.2288 3.12177C22.2288 2.37955 21.6258 1.77786 20.8819 1.77786Z" fill="black"/>
</svg>
