<svg width="24" height="23" viewBox="0 0 24 23" fill="none" xmlns="http://www.w3.org/2000/svg">
<path d="M21.571 10.2672V10.6832C21.571 14.1462 21.559 17.6082 21.583 21.0702C21.5769 21.3228 21.4787 21.5645 21.3069 21.7497C21.1351 21.935 20.9014 22.0511 20.65 22.0762C20.539 22.0832 20.427 22.0822 20.315 22.0822C14.7403 22.0822 9.16565 22.0822 3.59098 22.0822C3.39016 22.0881 3.18924 22.0747 2.99099 22.0422C2.40499 21.9262 2.30299 21.7922 2.30299 21.2032C2.30299 17.6898 2.30299 14.1765 2.30299 10.6632V10.2382C1.94999 10.4942 1.65799 10.7062 1.36599 10.9162C0.901986 11.2492 0.541985 11.2162 0.227985 10.8162C0.147423 10.7272 0.0861561 10.6224 0.0480309 10.5086C0.0099057 10.3948 -0.00424942 10.2743 0.00645835 10.1547C0.0171661 10.0351 0.0525041 9.91909 0.110249 9.81385C0.167993 9.7086 0.246889 9.61643 0.341984 9.54315C1.35798 8.68515 2.37532 7.82882 3.39399 6.97415C6.01999 4.76615 8.64598 2.55782 11.272 0.349154C11.3659 0.240353 11.4819 0.152906 11.6124 0.0926844C11.7429 0.032463 11.8847 0.000870266 12.0284 1.77276e-05C12.1721 -0.000834811 12.3144 0.0290715 12.4455 0.0877405C12.5767 0.14641 12.6938 0.232487 12.789 0.340167C16.4363 3.38417 20.0843 6.42717 23.733 9.46916C23.8265 9.52866 23.901 9.61364 23.9478 9.7141C23.9946 9.81456 24.0116 9.92632 23.997 10.0362C23.9928 10.1071 23.9928 10.1782 23.997 10.2492C23.99 10.5042 24.069 10.7802 23.755 10.9372C23.6037 11.032 23.4294 11.0837 23.2509 11.0867C23.0723 11.0897 22.8964 11.0439 22.742 10.9542C22.412 10.7542 22.086 10.5482 21.758 10.3462C21.6972 10.3164 21.6347 10.29 21.571 10.2672ZM4.01099 20.3512H19.559C19.565 20.2422 19.575 20.1512 19.575 20.0642C19.575 16.2975 19.575 12.5308 19.575 8.76416C19.5793 8.6799 19.5622 8.59591 19.5253 8.52002C19.4884 8.44414 19.4329 8.37882 19.364 8.33016C17.5967 6.86816 15.8327 5.4015 14.072 3.93016C13.348 3.33016 12.6223 2.72816 11.895 2.12416C11.82 2.17716 11.76 2.21416 11.705 2.25916L8.21999 5.11615C6.91999 6.18415 5.61999 7.26015 4.30199 8.31015C4.20221 8.37808 4.122 8.47099 4.06936 8.57961C4.01671 8.68823 3.99348 8.80875 4.00199 8.92916C4.01132 12.5958 4.01332 16.2625 4.00798 19.9292L4.01099 20.3512Z" fill="black"/>
</svg>
